# xmcd CD database file
#
# Track frame offsets:
#	150
#	17019
#	31520
#	54877
#	72024
#	88808
#	113375
#	134470
#	152716
#	168478
#	188679
#	204596
#
# Disc length: 3128 seconds
#
# Revision: 0
# Processed by: cddbd v1.4PL0 Copyright (c) Steve Scherf et al.
# Submitted via: CDex 1.40Beta9
#
DISCID=8d0c360c
DTITLE=Butch Mudbone - '...Closer 2 Da Bone'
DYEAR=2001
DGENRE=Blues
TTITLE0=Hey Now, Baby
TTITLE1=Meet Me At The Station
TTITLE2=Mean Woman Blues
TTITLE3=Old Time Boogie
TTITLE4=Closer to Da Bone
TTITLE5=Homeless Blues
TTITLE6=I Got The Blues Fo' Sho'
TTITLE7=Highway Shoes
TTITLE8=If I Had Possession (Robert Johnson)
TTITLE9=Throw This Old Dog A Bone
TTITLE10=Gwine To Brownsville (Walter "Fury" Lewis)
TTITLE11=Mudbone Boogie
EXTD=YEAR: 2001 ID3G: 0
EXTT0=
EXTT1=
EXTT2=
EXTT3=
EXTT4=
EXTT5=
EXTT6=
EXTT7=
EXTT8=
EXTT9=
EXTT10=
EXTT11=
PLAYORDER=
